<svg width="60" height="60" viewBox="0 0 60 70" fill="none" xmlns="http://www.w3.org/2000/svg">
  <g clip-path="url(#clip0_50_735)">
    <path d="M48.75 61.875V45H56.25V69.375H0V45H7.5V61.875H48.75Z" fill="#BCBBBB" />
    <path d="M40.3125 0L35.25 3.75L53.8125 28.6875L58.875 24.9375L40.3125 0ZM48.75 34.5L24.9375 14.625L28.875 9.9375L52.6875 29.8125L48.75 34.5ZM17.0625 28.5L45.1875 41.625L47.8125 36L19.6875 22.875L17.0625 28.5ZM43.3125 48.7313L44.5875 43.2L14.4 36.9188L13.125 43.125L43.3125 48.7313ZM43.125 56.25H13.125V50.625H43.125V56.25Z" fill="#F48024" />
  </g>
  <defs>
    <clipPath id="clip0_50_735">
      <rect width="60" height="69.375" fill="white" />
    </clipPath>
  </defs>
</svg>
